<?xml version="1.0" encoding="UTF-8" standalone="no"?>
<!-- Created with Inkscape (http://www.inkscape.org/) -->

<svg
   width="236"
   height="59"
   id="svg2"
   version="1.1"
   xmlns="http://www.w3.org/2000/svg"
   xmlns:svg="http://www.w3.org/2000/svg"
   xmlns:rdf="http://www.w3.org/1999/02/22-rdf-syntax-ns#"
   xmlns:cc="http://creativecommons.org/ns#"
   xmlns:dc="http://purl.org/dc/elements/1.1/">
  <defs
     id="defs4" />
  <metadata
     id="metadata7">
    <rdf:RDF>
      <cc:Work
         rdf:about="">
        <dc:format>image/svg+xml</dc:format>
        <dc:type
           rdf:resource="http://purl.org/dc/dcmitype/StillImage" />
      </cc:Work>
    </rdf:RDF>
  </metadata>
  <g
     id="layer1"
     transform="translate(0,-993.8598)">
    <path
       id="path1831"
       style="fill:#217be8;stroke-width:7.31046"
       d="m 709.7,1593.8597 a 600,600 0 0 1 -600,600 600,600 0 0 1 -600,-600 600,600 0 0 1 600,-599.99996 600,600 0 0 1 600,599.99996 z" />
    <path
       id="circle2559"
       style="fill:#ffffff;stroke-width:7.31046"
       d="m 709.7,1633.5465 a 600,600 0 0 1 -600,600 600,600 0 0 1 -600,-600 600,600 0 0 1 600,-600 600,600 0 0 1 600,600 z" />
    <g
       aria-label="KM Authorized"
       id="text2985-9"
       style="font-weight:600;font-size:32px;line-height:0%;font-family:'M+2 Nerd Font';-inkscape-font-specification:'M+2 Nerd Font, Semi-Bold';letter-spacing:0px;word-spacing:0px;display:inline;fill:#ffffff;stroke-width:1.00002">
      <path
         d="m 2.432031,1030.1519 v -23.36 h 4 v 10.144 h 0.064 l 10.176,-10.144 h 4.96 l -11.168,11.168 11.488,12.192 h -4.96 l -10.496,-11.136 h -0.064 v 11.136 z"
         style="display:inline"
         id="path1168" />
      <path
         d="m 24.256009,1030.1519 2.88,-23.36 h 4.896 l 4.96,16.032 h 0.064 l 4.992,-16.032 h 4.896 l 2.88,23.36 h -4.064 l -1.664,-17.44 h -0.064 l -4.928,14.88 h -4.128 l -4.928,-14.88 h -0.064 l -1.664,17.44 z"
         style="display:inline"
         id="path1170" />
      <path
         d="m 60.44803,1030.1519 8.288,-23.36 h 5.408 l 8.256,23.36 h -4.384 l -1.824,-5.6 h -9.536 l -1.824,5.6 z m 7.392,-9.152 h 7.168 l -3.552,-10.816 h -0.064 z"
         style="display:inline"
         id="path1172" />
      <path
         d="m 90.336001,1030.4719 q -2.944,0 -4.32,-1.76 -1.344,-1.792 -1.344,-5.6 v -9.6 h 3.904 v 8.864 q 0,2.496 0.736,3.68 0.736,1.184 2.24,1.184 1.152,0 2.112,-0.608 0.96,-0.608 1.536,-1.6 0.576,-1.024 0.576,-2.24 v -9.28 h 3.936 v 16.64 h -3.744 l -0.032,-2.24 h -0.064 q -2.08,2.56 -5.536,2.56 z"
         style="display:inline"
         id="path1174" />
      <path
         d="m 112.15998,1030.4719 q -3.104,0 -4.48,-1.28 -1.376,-1.312 -1.376,-4.224 v -8.32 h -3.712 v -3.136 h 3.712 v -5.44 h 3.936 v 5.44 h 5.632 v 3.136 h -5.632 v 7.776 q 0,1.472 0.64,2.112 0.64,0.608 2.112,0.608 0.608,0 1.216,-0.096 0.608,-0.128 1.216,-0.352 l 0.448,3.168 q -0.992,0.32 -1.856,0.448 -0.864,0.16 -1.856,0.16 z"
         style="display:inline"
         id="path1176" />
      <path
         d="m 119.77601,1030.1519 v -23.36 h 3.936 v 8.704 h 0.064 q 1.984,-2.304 5.44,-2.304 3.072,0 4.512,1.632 1.44,1.632 1.408,5.088 v 10.24 h -3.904 v -9.504 q 0.032,-2.176 -0.768,-3.2 -0.768,-1.024 -2.464,-1.024 -1.856,0 -3.072,1.088 -1.216,1.088 -1.216,2.784 v 9.856 z"
         style="display:inline"
         id="path1178" />
      <path
         d="m 146.62399,1030.4719 q -2.592,0 -4.48,-1.056 -1.888,-1.056 -2.912,-3.008 -1.024,-1.952 -1.024,-4.576 0,-2.656 1.024,-4.576 1.024,-1.952 2.912,-3.008 1.888,-1.056 4.48,-1.056 2.592,0 4.48,1.056 1.888,1.056 2.912,3.008 1.056,1.92 1.056,4.576 0,2.624 -1.056,4.576 -1.024,1.952 -2.912,3.008 -1.888,1.056 -4.48,1.056 z m 0,-3.136 q 2.176,0 3.328,-1.44 1.184,-1.44 1.184,-4.064 0,-2.656 -1.184,-4.064 -1.152,-1.44 -3.328,-1.44 -2.144,0 -3.328,1.44 -1.184,1.408 -1.184,4.064 0,2.624 1.184,4.064 1.184,1.44 3.328,1.44 z"
         style="display:inline"
         id="path1180" />
      <path
         d="m 158.59199,1030.1519 v -16.64 h 3.776 l 0.032,3.136 h 0.064 q 1.216,-1.632 3.168,-2.528 1.952,-0.928 4.224,-0.928 v 3.392 q -2.016,0 -3.68,0.768 -1.664,0.768 -2.656,2.08 -0.96,1.28 -0.96,2.88 v 7.84 z"
         style="display:inline"
         id="path1182" />
      <path
         d="m 173.216,1030.1519 v -16.48 h 3.968 v 16.48 z m 1.984,-18.848 q -1.152,0 -1.824,-0.64 -0.672,-0.672 -0.672,-1.792 0,-1.12 0.672,-1.792 0.672,-0.672 1.824,-0.672 1.152,0 1.824,0.672 0.672,0.672 0.672,1.792 0,1.12 -0.672,1.792 -0.672,0.64 -1.824,0.64 z"
         style="display:inline"
         id="path1184" />
      <path
         d="m 182.11203,1030.1519 v -3.136 l 8.896,-10.304 v -0.064 h -8.896 v -3.136 h 13.952 v 3.136 l -8.896,10.304 v 0.064 h 8.896 v 3.136 z"
         style="display:inline"
         id="path1186" />
      <path
         d="m 207.71199,1030.4719 q -4.256,0 -6.56,-2.24 -2.272,-2.24 -2.272,-6.4 0,-4.032 2.176,-6.336 2.176,-2.304 6.016,-2.304 3.712,0 5.696,2.176 2.016,2.176 2.016,6.176 0,0.448 -0.032,0.992 -0.032,0.544 -0.064,0.8 h -11.936 q 0.384,4 4.992,4 1.472,0 2.944,-0.384 1.472,-0.384 2.656,-1.056 l 0.608,3.072 q -1.216,0.704 -2.848,1.12 -1.6,0.384 -3.392,0.384 z m -4.96,-9.984 h 8.32 q -0.32,-4.288 -4,-4.288 -3.904,0 -4.32,4.288 z"
         style="display:inline"
         id="path1188" />
      <path
         d="m 224.28797,1030.4719 q 3.488,0 5.44,-2.304 h 0.064 l 0.032,1.984 h 3.744 v -23.36 h -3.936 v 8.704 h -0.064 q -1.856,-2.304 -5.28,-2.304 -3.328,0 -5.184,2.272 -1.856,2.272 -1.856,6.368 0,4.064 1.856,6.368 1.856,2.272 5.184,2.272 z m 1.024,-3.2 q -2.016,0 -3.136,-1.408 -1.088,-1.408 -1.088,-4.032 0,-2.624 1.088,-4.032 1.12,-1.408 3.136,-1.408 1.856,0 3.072,1.12 1.248,1.088 1.248,2.784 v 3.072 q 0,1.664 -1.248,2.784 -1.216,1.12 -3.072,1.12 z"
         style="display:inline"
         id="path1190" />
    </g>
    <g
       aria-label="Guilt-free IT"
       id="text3014"
       style="font-weight:800;font-size:10.6667px;line-height:0%;font-family:'M+2 Nerd Font';-inkscape-font-specification:'M+2 Nerd Font, Ultra-Bold';letter-spacing:0px;word-spacing:0px;fill:#217be8;stroke-width:1.031">
      <path
         d="m 80.995898,1046.7685 q -1.354671,0 -2.325341,-0.4693 -0.960003,-0.48 -1.472005,-1.376 -0.512001,-0.896 -0.512001,-2.1547 0,-1.248 0.501335,-2.144 0.512001,-0.896 1.450671,-1.376 0.949336,-0.48 2.261341,-0.48 0.725335,0 1.35467,0.1493 0.640002,0.1494 1.152004,0.4587 l -0.394668,1.472 q -0.416001,-0.2453 -0.992003,-0.3947 -0.576002,-0.16 -1.120003,-0.16 -1.098671,0 -1.696006,0.64 -0.597335,0.6294 -0.597335,1.8347 0,1.216 0.608002,1.8454 0.608002,0.6293 1.781339,0.6293 0.586668,0 1.06667,-0.192 v -1.5467 h -2.016007 v -1.5146 h 3.829346 v 4.1493 q -0.586669,0.2987 -1.344004,0.4693 -0.746669,0.16 -1.536005,0.16 z"
         id="path1193" />
      <path
         d="m 86.809267,1046.7685 q -0.97067,0 -1.408005,-0.576 -0.437334,-0.5866 -0.437334,-1.8773 v -3.2 h 1.781339 v 2.848 q 0,0.704 0.170667,1.024 0.181334,0.32 0.565335,0.32 0.437335,0 0.736002,-0.32 0.309335,-0.32 0.309335,-0.7787 v -3.0933 h 1.770672 v 5.5467 h -1.685339 l -0.02133,-0.7467 h -0.02133 q -0.362667,0.4587 -0.778669,0.6613 -0.416001,0.192 -0.981336,0.192 z"
         id="path1195" />
      <path
         d="m 91.81195,1046.6619 v -5.3334 h 1.813339 v 5.3334 z m 0.90667,-6.0267 q -0.490668,0 -0.768003,-0.256 -0.266667,-0.256 -0.266667,-0.7147 0,-0.4587 0.266667,-0.7147 0.277335,-0.256 0.768003,-0.256 0.490668,0 0.757336,0.256 0.277334,0.256 0.277334,0.7147 0,0.4587 -0.277334,0.7147 -0.266668,0.256 -0.757336,0.256 z"
         id="path1197" />
      <path
         d="m 95.150636,1046.6619 v -7.7867 h 1.813339 v 7.7867 z"
         id="path1199" />
      <path
         d="m 101.03866,1046.7685 q -1.098673,0 -1.600008,-0.448 -0.490669,-0.448 -0.490669,-1.44 v -2.4533 h -1.109336 v -1.312 h 1.109336 v -1.8134 h 1.792007 v 1.8134 h 1.68534 v 1.312 h -1.68534 v 2.1867 q 0,0.416 0.16,0.5866 0.16,0.16 0.544,0.16 0.40534,0 0.8,-0.1493 l 0.16,1.344 q -0.37333,0.1067 -0.68266,0.16 -0.30934,0.053 -0.68267,0.053 z"
         id="path1201" />
      <path
         d="m 103.21465,1044.3472 v -1.5573 h 3.58401 v 1.5573 z"
         id="path1203" />
      <path
         d="m 108.82534,1046.6619 v -4.0214 h -1.28 v -1.312 h 1.28 v -0.6613 q 0,-1.088 0.55467,-1.6534 0.56534,-0.5653 1.64268,-0.5653 0.288,0 0.608,0.043 0.33066,0.032 0.608,0.1173 l -0.18133,1.3547 q -0.20267,-0.064 -0.38401,-0.085 -0.17066,-0.032 -0.34133,-0.032 -0.39467,0 -0.55467,0.1814 -0.14933,0.1813 -0.14933,0.672 v 0.6293 h 1.568 v 1.312 h -1.568 v 4.0214 z"
         id="path1205" />
      <path
         d="m 113.10268,1046.6619 v -5.5467 h 1.70668 l 0.0107,0.992 h 0.0213 q 0.45866,-0.5334 1.06667,-0.8107 0.61867,-0.288 1.312,-0.288 v 1.472 q -0.64,0 -1.17334,0.2347 -0.52266,0.224 -0.84267,0.6187 -0.30933,0.3946 -0.30933,0.8746 v 2.4534 z"
         id="path1207" />
      <path
         d="m 120.55871,1046.7685 q -1.48267,0 -2.29334,-0.7466 -0.8,-0.7467 -0.8,-2.1334 0,-1.344 0.74667,-2.112 0.75733,-0.768 2.06934,-0.768 1.28,0 1.984,0.7253 0.71467,0.7254 0.71467,2.0481 0,0.1706 -0.0107,0.3946 -0.0107,0.2134 -0.032,0.2987 h -3.72268 q 0.11733,0.9813 1.36533,0.9813 0.48001,0 0.99201,-0.1173 0.512,-0.128 0.896,-0.32 l 0.20267,1.3013 q -0.39467,0.2027 -0.94934,0.3307 -0.55467,0.1173 -1.16267,0.1173 z m -1.33334,-3.4133 h 2.09068 q -0.0533,-0.5867 -0.30934,-0.864 -0.256,-0.2773 -0.72533,-0.2773 -0.94934,0 -1.05601,1.1413 z"
         id="path1209" />
      <path
         d="m 126.76672,1046.7685 q -1.48267,0 -2.29334,-0.7466 -0.8,-0.7467 -0.8,-2.1334 0,-1.344 0.74667,-2.112 0.75733,-0.768 2.06934,-0.768 1.28,0 1.984,0.7253 0.71467,0.7254 0.71467,2.0481 0,0.1706 -0.0107,0.3946 -0.0107,0.2134 -0.032,0.2987 h -3.72267 q 0.11733,0.9813 1.36533,0.9813 0.48,0 0.99201,-0.1173 0.512,-0.128 0.896,-0.32 l 0.20267,1.3013 q -0.39467,0.2027 -0.94934,0.3307 -0.55467,0.1173 -1.16267,0.1173 z m -1.33334,-3.4133 h 2.09068 q -0.0533,-0.5867 -0.30934,-0.864 -0.256,-0.2773 -0.72533,-0.2773 -0.94934,0 -1.05601,1.1413 z"
         id="path1211" />
      <path
         d="m 133.1454,1046.6619 v -7.7867 h 1.89868 v 7.7867 z"
         id="path1213" />
      <path
         d="m 138.48943,1046.6619 v -6.2187 h -2.35734 v -1.568 h 6.58135 v 1.568 h -2.35734 v 6.2187 z"
         id="path1215" />
    </g>
    <g
       aria-label="SM"
       id="text2721"
       style="font-weight:600;font-size:2.66667px;font-family:'M+2 Nerd Font';-inkscape-font-specification:'M+2 Nerd Font, Semi-Bold';stroke-width:1.031">
      <path
         d="m 145.91261,1040.4485 q -0.19201,0 -0.37867,-0.04 -0.184,-0.04 -0.30934,-0.1093 l 0.08,-0.2987 q 0.13334,0.067 0.304,0.1094 0.17334,0.043 0.32534,0.043 0.18933,0 0.29333,-0.067 0.104,-0.069 0.104,-0.1974 0,-0.093 -0.056,-0.1493 -0.056,-0.056 -0.168,-0.096 -0.10933,-0.04 -0.272,-0.085 -0.184,-0.051 -0.32,-0.1227 -0.136,-0.072 -0.21067,-0.1813 -0.0747,-0.112 -0.0747,-0.272 0,-0.256 0.19466,-0.3947 0.19467,-0.1387 0.55201,-0.1387 0.18133,0 0.35733,0.035 0.17867,0.032 0.304,0.088 l -0.0827,0.2987 q -0.12266,-0.059 -0.27733,-0.091 -0.15467,-0.035 -0.304,-0.035 -0.39734,0 -0.39734,0.24 0,0.091 0.0507,0.1467 0.0533,0.053 0.15734,0.093 0.104,0.037 0.256,0.083 0.19733,0.056 0.33866,0.128 0.144,0.072 0.22134,0.1813 0.0773,0.1094 0.0773,0.2747 0,0.2667 -0.2,0.4133 -0.2,0.144 -0.56533,0.144 z"
         id="path1218" />
      <path
         d="m 146.90461,1040.4219 0.24,-1.9467 h 0.408 l 0.41333,1.336 h 0.005 l 0.416,-1.336 h 0.40801 l 0.24,1.9467 h -0.33867 l -0.13867,-1.4534 h -0.005 l -0.41067,1.24 h -0.344 l -0.41067,-1.24 h -0.005 l -0.13867,1.4534 z"
         id="path1220" />
    </g>
  </g>
</svg>
