<?xml version="1.0" encoding="UTF-8" standalone="no"?>
<!-- Created with Inkscape (http://www.inkscape.org/) -->

<svg
   width="59"
   height="59"
   id="svg2"
   version="1.1"
   xmlns="http://www.w3.org/2000/svg"
   xmlns:svg="http://www.w3.org/2000/svg"
   xmlns:rdf="http://www.w3.org/1999/02/22-rdf-syntax-ns#"
   xmlns:cc="http://creativecommons.org/ns#"
   xmlns:dc="http://purl.org/dc/elements/1.1/">
  <defs
     id="defs4" />
  <metadata
     id="metadata7">
    <rdf:RDF>
      <cc:Work
         rdf:about="">
        <dc:format>image/svg+xml</dc:format>
        <dc:type
           rdf:resource="http://purl.org/dc/dcmitype/StillImage" />
      </cc:Work>
    </rdf:RDF>
  </metadata>
  <g
     id="layer1"
     transform="translate(0,-993.8598)">
    <path
       id="path1831"
       style="fill:#217be8;stroke-width:7.31046"
       d="m 713.1,1598.7098 a 600,600 0 0 1 -600,600 600,600 0 0 1 -600,-600 600,600 0 0 1 600,-600 600,600 0 0 1 600,600 z" />
    <path
       id="circle2559"
       style="fill:#ffffff;stroke-width:7.31046"
       d="m 713.1,1638.3966 a 600,600 0 0 1 -600,600 600,600 0 0 1 -600,-600 600,600 0 0 1 600,-600 600,600 0 0 1 600,600 z" />
    <g
       aria-label="KM"
       id="text2985-9"
       style="font-weight:600;font-size:32px;line-height:0%;font-family:'M+2 Nerd Font';-inkscape-font-specification:'M+2 Nerd Font, Semi-Bold';letter-spacing:0px;word-spacing:0px;display:inline;fill:#ffffff;stroke-width:1.00002"
       transform="translate(3.4000031,4.8500588)">
      <path
         d="m 2.432031,1030.1519 v -23.36 h 4 v 10.144 h 0.064 l 10.176,-10.144 h 4.96 l -11.168,11.168 11.488,12.192 h -4.96 l -10.496,-11.136 h -0.064 v 11.136 z"
         id="path770" />
      <path
         d="m 24.256009,1030.1519 2.88,-23.36 h 4.896 l 4.96,16.032 h 0.064 l 4.992,-16.032 h 4.896 l 2.88,23.36 h -4.064 l -1.664,-17.44 h -0.064 l -4.928,14.88 h -4.128 l -4.928,-14.88 h -0.064 l -1.664,17.44 z"
         id="path772" />
    </g>
  </g>
</svg>
